<svg width="309" height="309" viewBox="0 0 309 309" fill="none" xmlns="http://www.w3.org/2000/svg">
<mask id="mask0_110_44" style="mask-type:alpha" maskUnits="userSpaceOnUse" x="0" y="0" width="309" height="309">
<rect width="309" height="309" rx="18" fill="url(#paint0_linear_110_44)"/>
</mask>
<g mask="url(#mask0_110_44)">
<path d="M69.8485 176C67.1813 176 64.7019 175.527 62.4104 174.58C60.1564 173.633 58.2029 172.322 56.55 170.648C54.9347 168.936 53.7513 166.952 53 164.694L59.3675 162.018C60.3818 164.349 61.8469 166.187 63.7628 167.534C65.6787 168.845 67.8387 169.501 70.243 169.501C71.5954 169.501 72.7599 169.3 73.7366 168.9C74.7509 168.463 75.521 167.88 76.047 167.152C76.6105 166.424 76.8922 165.55 76.8922 164.531C76.8922 163.329 76.5166 162.346 75.7652 161.581C75.0515 160.78 73.962 160.161 72.497 159.724L64.439 157.212C61.1707 156.229 58.7101 154.754 57.0572 152.788C55.4042 150.822 54.5778 148.51 54.5778 145.852C54.5778 143.521 55.1601 141.464 56.3246 139.68C57.5267 137.896 59.1797 136.512 61.2834 135.529C63.4247 134.51 65.8665 134 68.6088 134C71.1258 134 73.4361 134.437 75.5398 135.311C77.6435 136.148 79.4467 137.332 80.9494 138.861C82.4896 140.354 83.6354 142.12 84.3867 144.159L78.0756 146.889C77.2491 144.85 76.0094 143.285 74.3565 142.192C72.7036 141.064 70.7877 140.499 68.6088 140.499C67.3316 140.499 66.2046 140.718 65.2279 141.155C64.2511 141.555 63.481 142.138 62.9175 142.902C62.3916 143.631 62.1286 144.505 62.1286 145.524C62.1286 146.653 62.5043 147.654 63.2556 148.528C64.0069 149.365 65.1527 150.021 66.6929 150.494L74.4128 152.843C77.7562 153.899 80.2544 155.355 81.9073 157.212C83.5978 159.069 84.4431 161.363 84.4431 164.094C84.4431 166.424 83.8232 168.481 82.5835 170.265C81.3438 172.049 79.6346 173.451 77.4557 174.471C75.2769 175.49 72.7411 176 69.8485 176Z" fill="#28353C"/>
<path d="M94.7247 175.345V134.655H102.388V152.406H120.251V134.655H127.971V175.345H120.251V158.96H102.388V175.345H94.7247Z" fill="#28353C"/>
<path d="M193.017 175.345V134.655H200.681V168.791H218.656V175.345H193.017Z" fill="#28353C"/>
<path d="M226.994 175.345V134.655H255V141.209H234.658V152.46H252.464V159.014H234.658V175.345H226.994Z" fill="#28353C"/>
<path d="M141.458 167.992H179.386V175.345H141.458V167.992Z" fill="#28353C"/>
<path d="M141.458 135.433H179.386V142.785H141.458V135.433Z" fill="#28353C"/>
<path d="M141.458 152.238H179.386V159.59H141.458V152.238Z" fill="#28353C"/>
<g opacity="0.3">
<path d="M10.2155 97C1.63293 97 -6.34528 95.4447 -13.7191 92.3342C-20.972 89.2237 -27.2579 84.9168 -32.5767 79.4135C-37.7746 73.7906 -41.5824 67.2705 -44 59.8531L-23.5105 51.0598C-20.2467 58.7165 -15.5323 64.7581 -9.36733 69.1847C-3.20235 73.4915 3.74836 75.645 11.4848 75.645C15.8366 75.645 19.5839 74.987 22.7268 73.671C25.9906 72.2354 28.4687 70.3212 30.1611 67.9285C31.9743 65.5358 32.8809 62.6645 32.8809 59.3147C32.8809 55.3667 31.6721 52.1365 29.2544 49.6242C26.9577 46.9922 23.4521 44.9584 18.7377 43.5228L-7.19145 35.2679C-17.7082 32.0377 -25.6259 27.1925 -30.9448 20.7321C-36.2636 14.2718 -38.923 6.6749 -38.923 -2.05852C-38.923 -9.71522 -37.0493 -16.4746 -33.3019 -22.3368C-29.4337 -28.199 -24.1149 -32.7451 -17.3455 -35.9753C-10.4553 -39.3251 -2.59794 -41 6.22644 -41C14.3255 -41 21.7598 -39.5644 28.5292 -36.6931C35.2985 -33.9415 41.1009 -30.0533 45.9362 -25.0286C50.8923 -20.1235 54.5792 -14.3212 56.9968 -7.62159L36.6887 1.3511C34.0293 -5.34851 30.0402 -10.4929 24.7214 -14.0819C19.4026 -17.7906 13.2376 -19.645 6.22644 -19.645C2.11645 -19.645 -1.51 -18.9272 -4.65293 -17.4916C-7.79586 -16.1756 -10.2739 -14.2614 -12.0872 -11.749C-13.7795 -9.35631 -14.6257 -6.48504 -14.6257 -3.13524C-14.6257 0.573467 -13.4169 3.86345 -10.9992 6.73472C-8.58159 9.48634 -4.89469 11.6398 0.0614629 13.1951L24.9027 20.9116C35.6612 24.381 43.6998 29.1664 49.0186 35.2679C54.4583 41.3693 57.1782 48.9064 57.1782 57.8791C57.1782 65.5358 55.1836 72.2952 51.1945 78.1573C47.2054 84.0195 41.7053 88.6255 34.6941 91.9753C27.683 95.3251 19.5235 97 10.2155 97Z" fill="#CCCCCC"/>
<path d="M90.2625 94.8466V-38.8466H114.922V19.4759H172.402V-38.8466H197.243V94.8466H172.402V41.0104H114.922V94.8466H90.2625Z" fill="#CCCCCC"/>
<path d="M406.551 94.8466V-38.8466H431.21V73.3121H489.052V94.8466H406.551Z" fill="#CCCCCC"/>
<path d="M515.883 94.8466V-38.8466H606V-17.3121H540.542V19.6554H597.841V41.1899H540.542V94.8466H515.883Z" fill="#CCCCCC"/>
<path d="M240.643 70.6893H362.687V94.8466H240.643V70.6893Z" fill="#CCCCCC"/>
<path d="M240.643 -36.2928H362.687V-12.1355H240.643V-36.2928Z" fill="#CCCCCC"/>
<path d="M240.643 18.9238H362.687V43.081H240.643V18.9238Z" fill="#CCCCCC"/>
</g>
</g>
<defs>
<linearGradient id="paint0_linear_110_44" x1="154.5" y1="0" x2="154.5" y2="309" gradientUnits="userSpaceOnUse">
<stop stop-color="white"/>
<stop offset="1" stop-color="#E8EDE7"/>
<stop offset="1" stop-color="white" stop-opacity="0"/>
</linearGradient>
</defs>
</svg>
