<svg width="89" height="18" viewBox="0 0 89 18" fill="none" xmlns="http://www.w3.org/2000/svg">
<path d="M7.42336 18C6.2482 18 5.1558 17.7971 4.14616 17.3914C3.15307 16.9857 2.29239 16.4239 1.56412 15.7061C0.852404 14.9727 0.331031 14.1222 0 13.1547L2.80548 12.0078C3.25237 13.0065 3.89788 13.7945 4.74201 14.3719C5.58614 14.9337 6.53785 15.2146 7.59715 15.2146C8.19301 15.2146 8.7061 15.1287 9.13644 14.9571C9.58333 14.7698 9.92264 14.5202 10.1544 14.2081C10.4026 13.896 10.5268 13.5215 10.5268 13.0845C10.5268 12.5696 10.3613 12.1482 10.0302 11.8205C9.71575 11.4772 9.23575 11.212 8.59024 11.0247L5.03994 9.94798C3.59996 9.52666 2.51583 8.89467 1.78756 8.05202C1.0593 7.20936 0.695164 6.21847 0.695164 5.07932C0.695164 4.08062 0.951713 3.19896 1.46481 2.43433C1.99446 1.6697 2.72273 1.07672 3.64961 0.655396C4.59305 0.218465 5.6689 0 6.87716 0C7.98611 0 9.00403 0.187256 9.93092 0.561768C10.8578 0.920676 11.6523 1.42783 12.3143 2.08322C12.9929 2.72302 13.4978 3.47984 13.8288 4.35371L11.0481 5.52406C10.684 4.6502 10.1378 3.97919 9.40954 3.51105C8.68127 3.02731 7.83715 2.78544 6.87716 2.78544C6.31441 2.78544 5.81786 2.87906 5.38752 3.06632C4.95718 3.23797 4.61788 3.48765 4.3696 3.81534C4.13788 4.12744 4.02202 4.50195 4.02202 4.93888C4.02202 5.42263 4.18754 5.85175 4.51857 6.22627C4.8496 6.58518 5.35442 6.86606 6.03303 7.06892L9.43437 8.07542C10.9075 8.52796 12.0081 9.15215 12.7364 9.94798C13.4812 10.7438 13.8536 11.7269 13.8536 12.8973C13.8536 13.896 13.5805 14.7776 13.0343 15.5423C12.4881 16.3069 11.735 16.9077 10.775 17.3446C9.81505 17.7815 8.69783 18 7.42336 18Z" fill="#28353C"/>
<path d="M18.3836 17.7191V0.280883H21.7601V7.88817H29.6304V0.280883H33.0317V17.7191H29.6304V10.697H21.7601V17.7191H18.3836Z" fill="#28353C"/>
<path d="M61.6908 17.7191V0.280883H65.0673V14.9103H72.9872V17.7191H61.6908Z" fill="#28353C"/>
<path d="M76.6608 17.7191V0.280883H89V3.08973H80.0373V7.91157H87.8828V10.7204H80.0373V17.7191H76.6608Z" fill="#28353C"/>
<path d="M38.9742 14.5682H55.6849V17.7191H38.9742V14.5682Z" fill="#28353C"/>
<path d="M38.9742 0.613985H55.6849V3.76493H38.9742V0.613985Z" fill="#28353C"/>
<path d="M38.9742 7.81615H55.6849V10.9671H38.9742V7.81615Z" fill="#28353C"/>
</svg>
